<svg width="4016" height="495" xmlns="http://www.w3.org/2000/svg" xmlns:xlink="http://www.w3.org/1999/xlink" xml:space="preserve" overflow="hidden"><defs><clipPath id="clip0"><rect x="191" y="1573" width="4016" height="495"/></clipPath></defs><g clip-path="url(#clip0)" transform="translate(-191 -1573)"><path d="M1006.81 1623.52C1016.95 1618.86 1032.61 1620.2 1037.65 1631.46 1041.4 1642.92 1039.4 1655.12 1039.93 1666.93 1038.43 1699.06 1038.74 1731.28 1038.11 1763.48 1037.49 1781.04 1038.74 1798.69 1036.83 1816.2 1036.61 1838.24 1035.81 1860.25 1035.43 1882.31L1034.5 1883.87C1034.43 1906.63 1034.32 1929.41 1032.92 1952.15 1032.39 1961.3 1028.71 1971.93 1019.17 1975.24 1011 1976.45 1000.71 1977.13 995.074 1969.89 987.908 1960.45 990.592 1947.81 990.104 1936.81 991.679 1914.91 991.768 1892.91 992.611 1870.96 995.229 1838.04 994.497 1804.94 994.541 1771.93L995.584 1770.35C995.584 1730.03 997.226 1689.71 996.716 1649.39 997.115 1640.26 997.203 1628.21 1006.81 1623.52Z" fill="#00ADEF" fill-rule="evenodd"/><path d="M1581.99 1624.46C1592.56 1617.92 1611.39 1620.35 1614.49 1634.36 1617.88 1656.76 1614.45 1679.5 1614.86 1702.02 1614.6 1729.08 1614.01 1756.11 1613.86 1783.17 1613.84 1793.55 1614.16 1803.96 1612.95 1814.29 1612.1 1837.58 1612.67 1860.97 1610.78 1884.19 1610.1 1907.15 1610.58 1930.17 1608.89 1953.1 1608.3 1962.02 1604.5 1972.22 1595.38 1975.27 1587.44 1976.43 1577.47 1977.11 1571.97 1969.94 1565.07 1960.46 1567.52 1947.95 1567.07 1936.97 1568.59 1915.93 1568.65 1894.79 1569.48 1873.7 1572.63 1836.28 1570.37 1798.65 1572.43 1761.18 1572.8 1723.98 1573.95 1686.76 1573.56 1649.54 1574.02 1640.87 1573.82 1629.77 1581.99 1624.46Z" fill="#00ADEF" fill-rule="evenodd"/><path d="M825.386 1657.78C836.926 1637.35 860.073 1626.56 882.713 1624.15 895.332 1623.05 908.987 1621.27 920.77 1627.03 933.675 1632.56 934.49 1653.18 922.532 1660.21 911.146 1666.85 897.138 1662.78 885.048 1667.24 870.512 1671.59 859.456 1683.67 853.84 1697.44 847.013 1714.03 844.436 1732.12 844.26 1749.98 860.205 1749.39 876.128 1747.74 892.073 1747.37 902.138 1747.76 913.7 1748.71 920.858 1756.66 928.808 1764.81 926.628 1780.58 915.991 1785.37 903.591 1791.16 889.518 1787.76 876.37 1789.17 865.072 1790.51 853.686 1790.75 842.344 1791.52 841.859 1799.71 842.278 1807.97 841 1816.09 840.12 1836.7 840.604 1857.3 840.736 1877.88 843.07 1910.08 843.005 1942.54 839.062 1974.61 837.697 1984.17 835.847 1996.64 825.32 2000.38 812.436 2006.2 795.411 1995.59 796.248 1981.2 797.24 1967.91 799.684 1954.71 800.323 1941.38 801.732 1892.73 799.706 1844.05 800.301 1795.4 794.927 1795.54 789.465 1795.43 784.224 1796.85 773.938 1796.68 762.596 1799.36 753.148 1794.09 745.176 1789.45 744.141 1779.19 745.506 1770.98 747.841 1763.12 755.659 1758.46 763.213 1756.55 776.251 1753.63 789.707 1753.56 803.01 1753.54 805.895 1721.01 808.185 1686.46 825.386 1657.78Z" fill="#00ADEF" fill-rule="evenodd"/><path d="M1410.89 1645.33C1425.73 1630.41 1447.16 1624.3 1467.73 1623.31 1478.5 1622.68 1490.37 1622.41 1499.69 1628.7 1506.72 1633.31 1508.17 1642.89 1506.19 1650.5 1503.74 1658.36 1495.75 1663 1487.91 1663.77 1477.36 1665 1466.28 1664.27 1456.46 1668.95 1442.27 1674.91 1432.74 1688.31 1427.91 1702.49 1422.69 1717.74 1420.4 1733.91 1420.29 1750 1436.94 1749.45 1453.53 1747.47 1470.18 1747.45 1480.05 1748.06 1491.52 1749.4 1497.93 1757.89 1504.73 1766.26 1502.14 1780.96 1491.94 1785.44 1479.58 1791.2 1465.55 1787.79 1452.45 1789.2 1441.13 1790.54 1429.74 1790.78 1418.38 1791.55 1416.66 1825.39 1415.32 1859.35 1417.87 1893.16 1418.09 1914.39 1419.15 1935.69 1416.77 1956.8 1415.62 1969.57 1415.87 1983.57 1408.95 1994.82 1398.64 2008.84 1373.1 2000.86 1372.41 1983.53 1372.66 1968.78 1376.2 1954.21 1376.44 1939.42 1377.72 1891.43 1375.78 1843.41 1376.36 1795.42 1361.69 1795.51 1346.56 1799.86 1332.18 1795.57 1321.76 1791.99 1319.38 1779.11 1321.96 1769.67 1324.93 1762.61 1332.04 1758.39 1339.2 1756.59 1352.28 1753.76 1365.74 1753.56 1379.06 1753.54 1379.9 1735.54 1382.65 1717.67 1385.78 1699.92 1389.94 1680.23 1396.79 1660.23 1410.89 1645.33Z" fill="#00ADEF" fill-rule="evenodd"/><path d="M1713.34 1645.37C1728.67 1639.77 1747.12 1652.11 1746.95 1668.43 1748.21 1685.84 1727.41 1699.24 1711.64 1691.99 1700.18 1686.98 1692.92 1673.59 1697.28 1661.51 1699.87 1654.13 1705.85 1647.94 1713.34 1645.37Z" fill="#00ADEF" fill-rule="evenodd"/><path d="M2125.99 1692.96C2156.77 1679.32 2192.89 1680.29 2224.04 1692.23 2230.49 1695.16 2238.55 1697.93 2241.28 1705.12 2243.86 1717.26 2243.84 1730.18 2240.8 1742.21 2238.73 1747.64 2231.9 1745.47 2228.18 1743.16 2211.76 1733.72 2193.36 1726.17 2174.07 1727.05 2161.39 1727.12 2147.19 1732.58 2141.86 1744.92 2137.66 1755.48 2139.31 1768.83 2147.83 1776.86 2161.12 1790.06 2179.64 1795.49 2196.13 1803.52 2213.96 1812.49 2233.16 1821.47 2244.89 1838.39 2258.81 1857.15 2261.69 1882.25 2256.76 1904.64 2252.75 1923.3 2240.84 1939.51 2226.09 1951.23 2192.36 1975.41 2146.59 1976.73 2108.13 1964.15 2097.7 1960.03 2085.33 1956.1 2079.62 1945.65 2075.84 1933.66 2076.52 1920.72 2079.32 1908.6 2080.55 1904.44 2084.25 1902.53 2088.45 1903.54 2102.59 1912.85 2118.13 1920.77 2134.86 1924.04 2151.92 1926.77 2171.36 1928.09 2186.51 1918.15 2201.02 1908.49 2205.24 1885.66 2193.31 1872.39 2181.33 1858.76 2163.48 1853.04 2147.59 1845.36 2129.22 1836.19 2109.15 1827.5 2096.91 1810.18 2083.9 1794.19 2081.08 1772.52 2082.82 1752.57 2085.13 1726.9 2102.37 1703.27 2125.99 1692.96Z" fill="#00ADEF" fill-rule="evenodd"/><path d="M3370.48 1703.31C3390.52 1690.93 3414.1 1684.59 3437.54 1683.1 3460.47 1682.35 3484.99 1685.67 3503.89 1699.66 3518.16 1709.88 3527.31 1726.33 3529.52 1743.62 3532.96 1768.47 3527.73 1794.46 3514.46 1815.82 3492.38 1852.83 3459.72 1881.5 3430.48 1912.6 3427.88 1915.3 3425.14 1917.83 3422.43 1920.34 3459.83 1921.99 3497.45 1920.36 3534.94 1921.13 3543.68 1929.4 3542.09 1942.59 3541.49 1953.48 3540.68 1958.67 3539.68 1967.29 3532.63 1966.83 3478.86 1967.14 3425.08 1966.94 3371.29 1966.92 3364.1 1967.51 3356.52 1962.76 3355.9 1955.2 3354.25 1940.64 3353.85 1924.03 3363.97 1912.2 3385.47 1887.51 3408.78 1864.42 3430.37 1839.81 3444.81 1822.28 3458.55 1802.69 3462.41 1779.84 3464.57 1766.84 3462.92 1751.56 3452.31 1742.45 3439.9 1731.3 3421.44 1732.75 3406.42 1736.8 3392.07 1740.45 3380.18 1749.49 3367.04 1755.78 3360.73 1751.82 3361.1 1743.95 3360.22 1737.44 3359.6 1725.54 3358.72 1710.43 3370.48 1703.31Z" fill="#00ADEF" fill-rule="evenodd"/><path d="M3654.1 1684.22C3677.62 1681.39 3702.98 1682.88 3723.84 1695.18 3739.89 1704.55 3751 1720.49 3757.44 1737.63 3765.2 1758.59 3767.17 1781.07 3768.6 1803.2 3769.72 1833.44 3768.75 1863.99 3762.14 1893.62 3756.89 1916.14 3746.26 1938.4 3727.83 1953.07 3711.25 1966.62 3689.4 1972.01 3668.3 1971.97 3646.47 1972.45 3623.03 1968.07 3606.25 1953.2 3588.92 1938.84 3580.1 1916.98 3575.73 1895.44 3567.99 1852.88 3568.08 1808.78 3576.04 1766.24 3580.87 1743.7 3590.18 1721.02 3607.57 1705.21 3620.18 1693.29 3636.94 1686.33 3654.1 1684.22M3665.28 1728.17C3654.07 1728.79 3644.24 1736.09 3639.13 1745.81 3631.5 1759.97 3629.75 1776.34 3628.21 1792.07 3626.78 1822.68 3626.05 1853.56 3630.7 1883.94 3633.41 1897.03 3636.39 1911.61 3647.24 1920.56 3659.19 1928.26 3675.71 1929.29 3688.08 1921.97 3700.86 1913.72 3705.69 1898.35 3708.49 1884.23 3713.39 1855.32 3712.02 1825.83 3711.27 1796.66 3709.44 1778.06 3708.18 1758.28 3698.33 1741.85 3691.69 1730.66 3677.62 1726.37 3665.28 1728.17Z" fill="#00ADEF" fill-rule="evenodd"/><path d="M3814.48 1703.31C3846.39 1684.24 3886.33 1677.77 3922.43 1687.45 3942.08 1692.73 3960.34 1706.05 3968.33 1725.14 3976.05 1742.8 3975.63 1762.79 3972.28 1781.42 3968.06 1802.04 3956.79 1820.38 3944.09 1836.88 3927.17 1859.97 3906.24 1879.65 3886.42 1900.16 3879.73 1906.96 3873.45 1914.13 3866.33 1920.46 3903.82 1921.85 3941.42 1920.46 3978.96 1921.14 3987.71 1929.45 3986.06 1942.69 3985.51 1953.58 3984.69 1958.79 3983.61 1967.34 3976.6 1966.84 3922.76 1967.12 3868.91 1966.95 3815.07 1966.93 3807.9 1967.45 3800.47 1962.66 3799.9 1955.16 3798.66 1943.02 3797.8 1929.87 3803.67 1918.7 3806.51 1913.07 3811.08 1908.61 3815.25 1903.95 3827.95 1889.54 3841.65 1876.06 3854.39 1861.68 3871.82 1843.52 3889.06 1824.47 3899.69 1801.4 3905.67 1788.3 3909.2 1773.3 3906 1758.99 3903.44 1746.43 3892.39 1736.62 3879.85 1734.58 3862.55 1731.96 3844.98 1737.13 3829.89 1745.4 3823.67 1748.34 3818.31 1753.93 3811.21 1754.48 3805.1 1754.41 3805.79 1746.41 3804.71 1742.14 3803.67 1728.95 3801.42 1711.6 3814.48 1703.31Z" fill="#00ADEF" fill-rule="evenodd"/><path d="M4038.22 1702.24C4062.31 1687.17 4091.59 1681.54 4119.77 1683.32 4139.59 1684.35 4160.31 1689.92 4174.99 1703.91 4187.82 1715.7 4193.89 1733.37 4194.04 1750.51 4194.97 1770.18 4188.88 1791.17 4173.74 1804.55 4165.27 1812.84 4153.83 1816.5 4143.18 1820.98 4166.79 1822.19 4189.83 1836.01 4200.59 1857.27 4214.24 1886.9 4205.37 1924.46 4180.88 1945.8 4164.15 1961 4141.68 1967.69 4119.77 1971.08 4089.94 1973.74 4058.48 1971.08 4031.6 1956.98 4021.73 1952.31 4021 1940.34 4021 1930.84 4021.24 1922.96 4019.66 1913.26 4026.58 1907.61 4032 1909.96 4037.36 1912.45 4042.65 1915.15 4059.93 1922.92 4078.83 1927.3 4097.83 1926.95 4108.77 1925.34 4120.25 1923.2 4128.96 1915.77 4148.27 1900.61 4144.57 1866.18 4123.01 1854.74 4102.59 1842.57 4077.99 1846.33 4055.35 1845.71 4045.63 1842.88 4047.46 1830.93 4046.62 1823.05 4047.5 1816.74 4046.31 1808.29 4052.46 1804.33 4073.05 1802.59 4095.47 1806.92 4114.26 1795.9 4135.16 1784.61 4139.61 1751 4120.71 1735.9 4111.1 1728.51 4098.12 1726.77 4086.39 1728.44 4069.85 1730.53 4054.82 1738.34 4040.71 1746.77 4037.76 1748.75 4034.18 1749.13 4030.85 1749.54 4025.54 1740.41 4027.59 1729.43 4027.55 1719.38 4027.17 1712.01 4032.05 1705.76 4038.22 1702.24Z" fill="#00ADEF" fill-rule="evenodd"/><path d="M1916.11 1727.7C1926.98 1723.13 1939.21 1718.56 1950.99 1722.49 1959.46 1725.58 1963.77 1734.67 1963.99 1743.25 1964.59 1757.84 1971.23 1772.05 1968.22 1786.74 1964.17 1801.7 1941.02 1806.93 1932.02 1793.8 1928.25 1786.5 1927.53 1778.07 1926.25 1770.06 1909.86 1773.7 1893.99 1779.48 1877.97 1784.54 1861.97 1790.52 1844.12 1800.4 1840.89 1818.89 1845.51 1820.32 1850.17 1821.63 1854.82 1823.02 1882.88 1828.36 1912.17 1834.97 1935.25 1852.78 1953.36 1867.06 1963.84 1890.14 1962.48 1913.21 1963.55 1931.04 1955.5 1949.09 1941.35 1959.95 1923.22 1974.42 1899.67 1979.89 1876.91 1980.75 1853.01 1982.12 1828.76 1977.8 1806.89 1968.07 1795.97 1963.01 1784.79 1954.78 1782.59 1942.16 1778.7 1927.56 1794.78 1912.77 1808.98 1917.16 1816.28 1920.56 1821.17 1927.73 1828.74 1930.69 1847.8 1937.26 1868.31 1937.97 1888.22 1935.94 1899.84 1932.98 1915.4 1930.67 1919.85 1917.56 1924.21 1899.03 1908.84 1883.36 1892.8 1877.29 1888.36 1875.95 1883.98 1874.51 1879.64 1872.97 1877.2 1872.55 1874.78 1872.13 1872.36 1871.69 1856.78 1867.92 1840.93 1864.78 1826.03 1858.65 1815.76 1853.91 1806.45 1845.85 1802.66 1834.89 1793.53 1807.55 1804.64 1774.56 1829.36 1759.38 1855.76 1742.81 1887.54 1739.13 1916.11 1727.7Z" fill="#00ADEF" fill-rule="evenodd"/><path d="M1181.28 1745.43C1199.79 1742.7 1219.89 1743.19 1236.42 1753.07 1258.29 1765.85 1270.49 1790 1276.75 1813.74 1284.25 1843.05 1283.59 1874.34 1275.56 1903.45 1268.3 1926.24 1255.68 1948.07 1236.61 1962.94 1215.66 1979.34 1186.8 1983.71 1161.4 1976.94 1143.31 1972.14 1127.58 1960.52 1116.15 1945.9 1100.22 1926.16 1093.42 1900.55 1092.15 1875.59 1090.48 1837.65 1103.18 1798.15 1130.46 1771.05 1143.99 1757.22 1162.27 1748.54 1181.28 1745.43M1173.86 1792.57C1156.46 1801 1146.19 1818.83 1140.22 1836.51 1133.79 1856.55 1132.45 1878.62 1138.11 1899.02 1143.99 1919.11 1162.45 1937.27 1184.46 1936.26 1204.67 1937.16 1223.16 1923.76 1232.73 1906.61 1242.85 1889.29 1242.69 1868.45 1241.95 1849.06 1240.5 1831.65 1238.02 1812.55 1225.47 1799.31 1217.98 1790.55 1206.38 1787.74 1195.34 1787.67 1187.97 1788.24 1180.44 1788.97 1173.86 1792.57Z" fill="#00ADEF" fill-rule="evenodd"/><path d="M1693.6 1766.03C1693.97 1756.26 1702.36 1747.49 1712.18 1747.14 1723.21 1745.76 1734.03 1754.9 1734.64 1766.01 1735.98 1784.33 1733.16 1802.59 1732.81 1820.88 1729.46 1854.33 1731.34 1887.99 1731.37 1921.54 1731.89 1933.14 1734.05 1945.32 1729.88 1956.5 1724.44 1969.21 1705.31 1971.97 1696.22 1961.82 1689.23 1953.96 1689.66 1942.43 1690.12 1932.57 1689.49 1900.39 1688.13 1868.22 1689.8 1836.05 1691.76 1812.75 1692.7 1789.37 1693.6 1766.03Z" fill="#00ADEF" fill-rule="evenodd"/><path d="M2364.83 1756.75C2383.29 1753.96 2402.52 1754.25 2420.54 1759.5 2440.77 1766.12 2458.83 1780.71 2467.38 1800.44 2476.28 1819.86 2477.93 1841.74 2476.59 1862.82 2475.93 1870.91 2468.68 1877.69 2460.44 1877.11 2421.67 1877.38 2382.87 1877.2 2344.07 1877.2 2343.92 1889.54 2345.86 1902.5 2353 1912.9 2358.42 1921.04 2367.36 1926.16 2376.68 1928.72 2382.32 1930.36 2388.36 1929.66 2394.04 1931.29 2396.35 1931.33 2398.71 1931.35 2401.09 1931.33 2407.43 1929.38 2414.24 1930.43 2420.74 1929.18 2431.16 1926.71 2441.67 1924.36 2451.65 1920.29 2454.6 1919.3 2457.71 1918.58 2460.48 1917.01 2462.09 1917.83 2463.72 1918.6 2465.42 1919.37 2469.6 1928.72 2468.22 1939.41 2467.29 1949.28 2466.01 1958.26 2456.28 1960.76 2449.05 1963.29 2416.4 1973.19 2380.76 1975.41 2347.75 1965.98 2326.3 1959.44 2307.5 1943.41 2298.82 1922.6 2287.68 1896.69 2287.79 1867.7 2290.58 1840.14 2292.99 1830.02 2294.57 1819.55 2299.22 1810.11 2309.84 1782.58 2335.77 1761.79 2364.83 1756.75M2363.77 1799.27C2349.74 1808.51 2344.56 1825.93 2343.88 1841.9 2370.82 1841.96 2397.76 1841.94 2424.71 1841.9 2424.51 1833.14 2424.04 1824.19 2420.63 1815.99 2416.53 1804.73 2406.29 1796.24 2394.57 1793.93 2384.06 1792.63 2372.78 1793.09 2363.77 1799.27Z" fill="#00ADEF" fill-rule="evenodd"/><path d="M2910.15 1777.67C2929.27 1759.79 2956.48 1753.3 2982.12 1755.37 3006.16 1755.48 3030.24 1765.79 3045.59 1784.42 3062.95 1806.42 3066.39 1835.89 3064.56 1863.01 3063.86 1871.06 3056.56 1877.74 3048.37 1877.17 3009.59 1877.39 2970.82 1877.24 2932.05 1877.24 2931.94 1889.57 2933.85 1902.53 2940.99 1912.93 2946.41 1921.07 2955.33 1926.22 2964.65 1928.72 2970.29 1930.42 2976.33 1929.69 2982.01 1931.32 2984.32 1931.36 2986.68 1931.38 2989.06 1931.36 3006.86 1929.67 3024.93 1926.77 3041.52 1919.51 3043.85 1918.78 3046.65 1918.76 3048.46 1916.8 3057.16 1919.86 3056.1 1930.09 3056.15 1937.52 3055.88 1944.56 3056.48 1953.58 3049.76 1958 3040.39 1963.08 3029.91 1965.56 3019.62 1967.85 2989.66 1973.88 2957.8 1974.05 2928.81 1963.6 2911.49 1956.13 2896.05 1942.89 2888.16 1925.49 2875.93 1899.87 2875.82 1870.62 2878.22 1842.9 2881.95 1818.73 2890.89 1793.84 2910.15 1777.67M2951.74 1799.36C2937.69 1808.55 2932.57 1826.01 2931.85 1841.94 2958.79 1842 2985.76 1841.98 3012.7 1841.94 3012.44 1833.78 3012.17 1825.46 3009.24 1817.74 3005.5 1805.71 2994.9 1796.34 2982.54 1793.97 2972.03 1792.67 2960.71 1793.13 2951.74 1799.36Z" fill="#00ADEF" fill-rule="evenodd"/><path d="M2606.94 1756.47C2617.66 1754.29 2629.34 1754.18 2639.55 1758.59 2644.87 1761.01 2644.41 1767.58 2645 1772.51 2642.94 1785.1 2647.91 1799.25 2640.78 1810.64 2630.06 1809.78 2619.8 1803.28 2608.86 1806.89 2593.99 1812.76 2584.93 1826.97 2576.6 1839.88 2576.77 1878.32 2576.57 1916.77 2576.71 1955.21 2576.77 1958.38 2576.07 1961.49 2575.31 1964.53 2567.1 1969.03 2557.61 1967.81 2548.66 1967.95 2540.35 1967.9 2531.62 1968.76 2524.05 1964.64 2523.53 1961.58 2523 1958.51 2523 1955.41 2523.02 1895.09 2523.05 1834.75 2523 1774.43 2522.98 1770.49 2523.26 1766.56 2523.64 1762.64 2532.6 1757.4 2543.26 1758.12 2553.21 1758.43 2558.24 1758.61 2563.06 1760.26 2567.54 1762.47 2570.01 1771.79 2568.39 1781.48 2569.31 1790.98 2578.61 1776.66 2590.31 1762.16 2606.94 1756.47Z" fill="#00ADEF" fill-rule="evenodd"/><path d="M3194.57 1756.5C3205.33 1754.27 3217.06 1754.2 3227.34 1758.52 3232.71 1760.95 3232.27 1767.49 3233 1772.41 3232.21 1778.98 3232.32 1785.61 3232.93 1792.2 3231.79 1798.46 3233.92 1807.18 3227.04 1810.58 3216.95 1809.08 3207.05 1803.55 3196.64 1806.88 3181.6 1812.69 3172.47 1826.95 3164.08 1839.91 3164.26 1875.39 3164.08 1910.87 3164.17 1946.35 3164.15 1952.46 3164.65 1958.67 3162.76 1964.56 3154.51 1969.01 3145 1967.82 3136.02 1967.95 3127.63 1967.91 3118.85 1968.79 3111.21 1964.64 3108.88 1946.93 3110.75 1928.92 3110.15 1911.07 3110.57 1861.62 3109.34 1812.1 3110.79 1762.67 3119.77 1757.4 3130.47 1758.13 3140.48 1758.44 3145.53 1758.61 3150.39 1760.22 3154.95 1762.45 3157.63 1771.72 3155.72 1781.49 3156.62 1790.96 3166.19 1776.84 3177.79 1762.12 3194.57 1756.5Z" fill="#00ADEF" fill-rule="evenodd"/><path d="M2661 1765.64C2664.12 1758.96 2672.26 1758.76 2678.62 1758.34 2690.75 1758.45 2703.7 1756.98 2714.97 1762.53 2732.04 1812.74 2746.23 1863.93 2762.58 1914.43 2775.41 1867.09 2791.01 1820.47 2804.76 1773.37 2806.47 1768.31 2807.66 1760.88 2814.13 1760.06 2828.14 1757.68 2843.21 1756.6 2856.9 1761.08 2862.77 1766.54 2858.75 1775.07 2857.38 1781.62 2838.11 1840.11 2818.88 1898.65 2799.43 1957.09 2797.45 1965.84 2787.82 1968.07 2780.09 1967.85 2765.11 1967.76 2750.06 1968.49 2735.1 1967.36 2728.81 1967.17 2723.51 1962.78 2721.83 1956.79 2704.39 1904.24 2687.03 1851.66 2669.67 1799.07 2666.26 1788.12 2661.44 1777.25 2661 1765.64Z" fill="#00ADEF" fill-rule="evenodd"/><path d="M432.597 1573.23C452.197 1572.1 471.748 1575.25 490.839 1579.45 513.767 1584.66 536.166 1592.23 557.588 1601.97 570.668 1608.16 583.432 1615.21 594.917 1624.1 602.729 1630.27 610.184 1637.33 614.922 1646.24 618.058 1652.02 619.021 1659.11 616.765 1665.37 613.643 1674.08 607.158 1681.02 600.405 1687.05 582.167 1702.56 560.277 1712.87 538.16 1721.42 511.367 1731.49 483.446 1738.76 455.009 1741.99 435.307 1744.33 415.411 1742.3 395.942 1738.99 369.445 1734.4 343.388 1727.11 318.458 1716.96 305.124 1711.41 292.078 1704.97 280.146 1696.75 273.317 1691.97 266.818 1686.56 261.647 1679.96 258.105 1675.32 255.155 1669.85 255.003 1663.88 254.893 1657.94 257.479 1652.36 260.725 1647.56 264.927 1641.46 270.181 1636.17 275.841 1631.45 293.171 1617.26 313.321 1607.09 333.828 1598.45 346.166 1593.35 358.778 1588.94 371.57 1585.13 391.486 1579.31 411.876 1574.75 432.597 1573.23Z" fill="#00ADEF" fill-rule="evenodd"/><path d="M644.22 1676C652.346 1688.24 659.316 1701.24 665.045 1714.79 669.467 1724.87 672.731 1735.4 675.988 1745.91 689.741 1793.78 689.376 1845.69 674.577 1893.27 667.394 1917.29 656.891 1940.4 642.739 1961.1 635.756 1971.15 627.94 1980.77 618.518 1988.63 614.483 1991.89 610.13 1994.97 605.158 1996.59 601.219 1997.87 597.259 1995.9 593.788 1994.19 582.342 1988.01 573.265 1978.34 565.029 1968.42 550.009 1949.64 538.494 1928.11 530.464 1905.45 520.031 1877.02 515.183 1846.56 516.112 1816.28 516.787 1796.09 519.907 1776 525.354 1756.57 552.316 1748.16 578.816 1737.4 602.617 1721.98 613.002 1715.15 622.816 1707.29 630.977 1697.86 636.52 1691.36 641.265 1684.07 644.22 1676Z" fill="#00ADEF" fill-rule="evenodd"/><path d="M204.361 1744.87C211.085 1724.18 220.475 1704.37 232.09 1686 235.845 1693.72 241.115 1700.64 247.199 1706.67 257.705 1717.03 270.126 1725.2 283.058 1732.16 301.617 1742.14 321.431 1749.52 341.5 1755.79 352.695 1808.58 349.292 1864.28 332.351 1915.46 325.2 1936.71 315.761 1957.42 302.534 1975.58 297.139 1982.73 291.228 1989.76 283.643 1994.64 281.032 1996.27 277.856 1997.81 274.783 1996.52 267.04 1993.78 260.529 1988.46 254.522 1983 235.328 1964.83 221.274 1941.83 210.644 1917.75 204.443 1902.91 199.269 1887.59 196.018 1871.82 186.972 1829.79 190.396 1785.42 204.361 1744.87Z" fill="#00ADEF" fill-rule="evenodd"/><path d="M372.384 1763C400.825 1769.24 430.174 1773.47 459.289 1770.13 470.97 1768.82 482.588 1766.84 494.07 1764.29 483.716 1811.33 485.847 1861.24 501.123 1906.95 510.17 1935.17 523.872 1961.98 542.18 1985.24 553.771 1999.62 567.246 2013.12 584 2021.22 564.647 2035.19 543.335 2046.45 520.813 2054.24 461.84 2075.04 395.03 2072.18 338.099 2046.21 322.933 2039.39 308.488 2030.95 295 2021.2 304.776 2016.23 312.778 2008.4 319.866 2000.11 336.806 1979.71 348.549 1955.47 357.575 1930.62 376.351 1877.2 381.837 1818.93 372.384 1763Z" fill="#00ADEF" fill-rule="evenodd"/></g></svg>