<svg width="1979" height="721" xmlns="http://www.w3.org/2000/svg" xmlns:xlink="http://www.w3.org/1999/xlink" xml:space="preserve" overflow="hidden"><g transform="translate(-2588 -187)"><path d="M3507.72 888.723 3587.72 568.723 4540.72 568.723 4460.72 888.723Z" fill="#404040" fill-rule="evenodd"/><path d="M3498 879 3578 559 4531 559 4451 879Z" fill="#00ADEF" fill-rule="evenodd"/><path d="M3533.72 907.723 3613.72 587.723 4566.72 587.723 4486.72 907.723Z" fill="#404040" fill-rule="evenodd"/><path d="M3524 898 3604 578 4557 578 4477 898Z" fill="#FFC000" fill-rule="evenodd"/><path d="M2830.6 187.233C2850.2 186.101 2869.75 189.241 2888.84 193.409 2911.77 198.592 2934.17 206.113 2955.59 215.802 2968.67 221.951 2981.43 228.962 2992.92 237.802 3000.73 243.929 3008.18 250.954 3012.92 259.808 3016.06 265.556 3017.02 272.602 3014.77 278.826 3011.64 287.487 3005.16 294.38 2998.4 300.377 2980.17 315.8 2958.28 326.048 2936.16 334.543 2909.37 344.563 2881.45 351.788 2853.01 354.996 2833.31 357.322 2813.41 355.307 2793.94 352.015 2767.44 347.454 2741.39 340.208 2716.46 330.112 2703.12 324.599 2690.08 318.195 2678.15 310.018 2671.32 305.27 2664.82 299.894 2659.65 293.332 2656.1 288.722 2653.15 283.284 2653 277.343 2652.89 271.442 2655.48 265.894 2658.73 261.119 2662.93 255.06 2668.18 249.795 2673.84 245.102 2691.17 231.004 2711.32 220.888 2731.83 212.303 2744.17 207.231 2756.78 202.842 2769.57 199.061 2789.49 193.271 2809.88 188.737 2830.6 187.233Z" fill="#00ADEF" fill-rule="evenodd"/><path d="M3041.47 289C3049.54 301.237 3056.47 314.242 3062.17 327.787 3066.56 337.87 3069.81 348.403 3073.05 358.909 3086.72 406.782 3086.36 458.692 3071.64 506.274 3064.5 530.291 3054.06 553.4 3039.99 574.099 3033.05 584.154 3025.28 593.766 3015.92 601.626 3011.9 604.894 3007.58 607.969 3002.63 609.59 2998.72 610.871 2994.78 608.897 2991.33 607.194 2979.95 601.009 2970.93 591.342 2962.74 581.418 2947.81 562.638 2936.36 541.114 2928.38 518.449 2918.01 490.021 2913.19 459.558 2914.11 429.281 2914.78 409.095 2917.88 388.998 2923.3 369.566 2950.1 361.159 2976.45 350.405 3000.11 334.983 3010.43 328.154 3020.19 320.295 3028.3 310.863 3033.81 304.36 3038.53 297.068 3041.47 289Z" fill="#00ADEF" fill-rule="evenodd"/><path d="M2601.36 357.87C2608.08 337.181 2617.47 317.371 2629.09 299 2632.84 306.722 2638.12 313.641 2644.2 319.668 2654.7 330.026 2667.13 338.205 2680.06 345.159 2698.62 355.143 2718.43 362.519 2738.5 368.788 2749.69 421.576 2746.29 477.283 2729.35 528.458 2722.2 549.714 2712.76 570.417 2699.53 588.58 2694.14 595.728 2688.23 602.758 2680.64 607.643 2678.03 609.269 2674.86 610.812 2671.78 609.518 2664.04 606.778 2657.53 601.464 2651.52 595.998 2632.33 577.828 2618.27 554.828 2607.64 530.748 2601.44 515.914 2596.27 500.594 2593.02 484.818 2583.97 442.79 2587.4 398.417 2601.36 357.87Z" fill="#00ADEF" fill-rule="evenodd"/><path d="M2769.38 377C2797.83 383.239 2827.17 387.468 2856.29 384.133 2867.97 382.816 2879.59 380.841 2891.07 378.289 2880.72 425.332 2882.85 475.238 2898.12 520.949 2907.17 549.171 2920.87 575.978 2939.18 599.236 2950.77 613.62 2964.25 627.118 2981 635.222 2961.65 649.19 2940.33 660.448 2917.81 668.24 2858.84 689.037 2792.03 686.181 2735.1 660.206 2719.93 653.391 2705.49 644.954 2692 635.201 2701.78 630.23 2709.78 622.397 2716.87 614.106 2733.81 593.711 2745.55 569.469 2754.58 544.616 2773.35 491.196 2778.84 432.93 2769.38 377Z" fill="#00ADEF" fill-rule="evenodd"/><path d="M3412.59 241.577C3419.93 240.344 3428.55 240.762 3434.33 246.073 3439.32 250.728 3439.96 258.009 3440 264.454 3439.9 316.196 3437.81 367.918 3437.69 419.68 3436.3 465.434 3435.02 511.188 3433.69 556.942 3432.93 566.59 3434.09 577.154 3428.77 585.768 3422.72 595.177 3408.88 595.893 3399.69 591.079 3392.5 587.2 3390.89 578.308 3391.01 570.848 3391.32 520.419 3395.29 470.089 3395.7 419.68 3395.62 366.546 3397.76 313.451 3397.97 260.336 3397.64 251.604 3403.51 242.692 3412.59 241.577Z" fill="#00ADEF" fill-rule="evenodd"/><path d="M3983.47 241.836C3990.86 240.305 3999.54 240.524 4005.65 245.517 4011.14 250.052 4012.02 257.691 4012 264.375 4011.92 315.52 4009.83 366.624 4009.75 417.769 4008.38 463.92 4007.02 510.052 4005.75 556.183 4004.93 565.931 4006.17 576.514 4001.09 585.307 3995.38 595.074 3981.4 595.87 3972.07 591.354 3964.7 587.574 3962.85 578.583 3963.01 571.004 3963.33 519.859 3967.41 468.834 3967.73 417.689 3967.61 365.948 3969.84 314.246 3969.9 262.505 3969.34 253.633 3973.9 243.487 3983.47 241.836Z" fill="#00ADEF" fill-rule="evenodd"/><path d="M3248.93 256.055C3265.49 245.614 3285.65 242.776 3304.89 243.014 3313.52 243.292 3323.33 244.701 3329.22 251.708 3335.48 260.164 3334.01 274.396 3324.49 279.914 3314.59 285.671 3302.7 282.852 3292.03 285.453 3277.48 288.172 3265.29 298.534 3258.71 311.575 3249.75 329.102 3247.09 349.19 3247.01 368.663 3264.94 368.246 3282.82 365.646 3300.77 366.698 3309.52 367.412 3319.56 369.497 3324.81 377.278 3329.28 384.9 3328.7 396.373 3321.33 402.031 3314.87 406.655 3306.52 407.033 3298.87 407.211 3280.94 407.072 3263.07 408.601 3245.22 410.07 3243.91 425.612 3243.87 441.234 3243.19 456.796 3242.89 501.498 3247.74 546.438 3241.82 590.961 3240.45 598.861 3239.81 608.071 3233.27 613.689 3223.37 621.748 3206.28 618.056 3200.85 606.384 3197.73 599.734 3199.92 592.331 3200.67 585.423 3205.34 553.345 3203.75 520.871 3203.5 488.596 3203.18 463.545 3203.63 438.495 3203.24 413.464 3189.52 414.079 3175.69 416.799 3161.99 414.734 3145.69 411.995 3143.03 386.309 3157.2 379.005 3172.03 370.886 3189.62 373.208 3205.88 372.037 3208.05 347.324 3210.05 322.234 3217.93 298.553 3223.59 281.701 3233.53 265.583 3248.93 256.055Z" fill="#00ADEF" fill-rule="evenodd"/><path d="M3816.85 258.167C3833.53 246.285 3854.62 242.922 3874.66 243.001 3883.86 243.181 3894.59 244.454 3900.66 252.276 3906.56 261.112 3904.71 275.541 3894.59 280.536 3883.03 286.308 3869.43 282.367 3857.5 287.064 3842.43 291.781 3831.66 304.976 3826.22 319.365 3820.09 335.148 3818.1 352.204 3817.89 369.021 3834.13 368.543 3850.33 366.593 3866.59 366.772 3875.09 367.09 3884.2 367.946 3891.39 372.961 3901.73 380.166 3901.13 399.092 3889.19 404.367 3879.61 408.665 3868.81 407.372 3858.62 407.73 3844.36 408.287 3830.13 409.183 3815.96 410.676 3815.14 433.523 3813.59 456.37 3814.39 479.238 3815.24 515.718 3817.55 552.358 3813.27 588.719 3811.92 596.679 3811.58 605.476 3806.6 612.223 3797.83 623.249 3778.07 620.164 3772.05 607.725 3768.91 601.774 3770.56 594.908 3771.35 588.599 3774.67 566.249 3775.27 543.601 3774.87 521.032 3774.37 485.368 3774.25 449.703 3774.25 414.039 3760.7 414.457 3747.06 417.164 3733.53 415.353 3717.21 413.084 3713.85 387.768 3727.5 379.828 3742.31 371.17 3760.32 373.439 3776.78 372.543 3779.16 347.547 3781.03 322.132 3789.12 298.19 3794.41 282.646 3803.28 267.779 3816.85 258.167Z" fill="#00ADEF" fill-rule="evenodd"/><path d="M4108.31 265.151C4123.27 260.139 4140.77 272.188 4140.93 287.907 4142.04 301.721 4129.37 314.391 4115.55 313.991 4101.76 314.291 4089.01 301.741 4090.06 287.907 4090.36 277.461 4098.31 268.038 4108.31 265.151Z" fill="#00ADEF" fill-rule="evenodd"/><path d="M4318.04 343.417C4328.47 339.616 4342.49 337.167 4350.98 346.243 4357.82 352.652 4356.27 362.724 4357.74 371.103 4359.37 383.126 4364.82 395.705 4360.15 407.667 4354.84 420.744 4334.81 423.77 4325.82 413.101 4321.05 406.015 4320.75 397.058 4319.12 388.917 4307.29 391.167 4295.93 395.327 4284.39 398.77 4269.28 403.448 4253.27 408.782 4242.21 420.744 4237.86 425.143 4235.95 431.193 4234.99 437.165 4247.22 441.484 4260.27 442.559 4272.74 445.982 4295.39 451.894 4318.98 459.676 4335.59 477.052 4352.27 493.612 4358.06 518.791 4354.66 541.581 4352.49 555.733 4344.54 568.79 4333.08 577.309 4315.2 590.943 4292.27 595.819 4270.21 596.815 4246.01 597.969 4221.39 593.769 4199.33 583.539 4188.95 578.523 4178.31 570.462 4176.44 558.32 4173.38 544.805 4186.76 531.191 4200.19 533.161 4209.87 535.59 4215.06 545.92 4224.93 548.129 4247.68 554.578 4272.42 556.27 4295.21 549.105 4302.93 546.597 4311.5 542.019 4313.39 533.4 4315.52 521.12 4309.04 508.62 4299.05 501.634 4282.31 489.811 4261.15 488.736 4241.95 483.461 4225.94 479.202 4207.77 473.868 4198.96 458.482 4190.52 442.618 4192.35 423.053 4198.56 406.732 4206.55 386.489 4226.06 373.671 4245.97 367.003 4269.74 358.365 4294.76 353.488 4318.04 343.417Z" fill="#00ADEF" fill-rule="evenodd"/><path d="M3581.23 364.268C3601.76 361.128 3624.43 363.334 3641.34 376.411 3662.43 392.449 3672.85 418.644 3677.44 444.023 3683.03 478.743 3680.06 516.166 3662.61 547.289 3652.04 566.448 3635.96 583.381 3615.2 591.231 3590.52 600.512 3561.28 598.803 3538.77 584.593 3515.76 570.204 3500.03 545.719 3494.48 519.326 3487.86 488.342 3490.51 454.993 3503.95 426.156 3514.41 404.394 3530.25 384.202 3552.23 373.291 3561.28 368.64 3571.17 365.798 3581.23 364.268M3579.38 408.607C3568.35 411.946 3558.88 419.359 3552.03 428.541 3539.26 445.911 3533.49 467.633 3533.07 488.998 3532.95 501.936 3534.68 515.292 3540.77 526.878 3546.85 538.286 3556.93 547.945 3569.42 551.801 3586.15 556.889 3605.27 552.278 3618.12 540.472 3631.83 528.747 3639.02 510.9 3640.05 493.132 3641.09 473.258 3640.69 452.708 3633.66 433.848 3629.73 423.095 3621.99 413.158 3611.05 409.044 3600.9 405.487 3589.65 405.646 3579.38 408.607Z" fill="#00ADEF" fill-rule="evenodd"/><path d="M4103.82 366.403C4111.53 364.917 4120.21 367.552 4124.91 374.109 4128.75 379.081 4129.07 385.638 4128.99 391.66 4128.73 416.798 4126.22 441.818 4125.18 466.916 4123.86 498.69 4126.18 530.465 4126.24 562.239 4126.26 567.429 4125.3 572.876 4122.05 577.076 4114.34 587.733 4095.97 587.654 4088.53 576.759 4085.38 572.579 4084.41 567.27 4084.47 562.16 4084.35 538.368 4083.2 514.597 4083.02 490.806 4082.63 456.338 4087.25 422.087 4087.35 387.639 4086.73 377.754 4093.81 367.909 4103.82 366.403Z" fill="#00ADEF" fill-rule="evenodd"/><path d="M3706.82 593.422C3712.55 592.089 3719.63 593.859 3722.47 599.508 3725.13 604.68 3727.98 609.751 3731.76 614.226 3737.55 621.626 3736.75 631.451 3737.23 640.282 3738.26 644.638 3739.06 649.074 3739 653.589 3734.2 654.643 3729.33 655.259 3724.42 655.538 3720 651.639 3719.63 644.499 3714 641.953 3709.34 639.467 3705.37 635.986 3701.27 632.724 3695.46 628.925 3688.22 630.914 3681.78 630.875 3664.24 630.576 3646.73 643.325 3642.78 660.57 3642.5 667.989 3645.58 675.905 3651.79 680.261 3659.96 686.705 3668.77 692.354 3676.69 699.136 3684.7 705.899 3694.92 709.618 3702.2 717.336 3714.43 727.539 3721.02 742.795 3725.41 757.772 3727.52 764.136 3730.13 770.521 3730.19 777.343 3731.14 788.064 3725.55 797.65 3721.65 807.218 3716.03 816.387 3709.88 826.213 3699.94 831.205 3681.6 838.882 3660.28 838.962 3641.94 831.264 3635.96 827.744 3639.58 819.888 3642.44 815.452 3645.36 815.492 3648.31 815.492 3651.25 815.452 3651.89 817.699 3652.56 819.967 3653.22 822.254 3667.74 825.576 3684.32 824.781 3697.13 816.466 3702.76 813.224 3704.85 806.681 3707.71 801.251 3712.7 790.451 3716.88 777.482 3711.27 766.105 3707.06 758.07 3704.87 749.08 3700.02 741.382 3690.23 730.96 3678.34 722.865 3665.79 716.122 3657.49 712.144 3651.41 704.626 3642.82 701.185 3629.99 696.073 3622.31 683.443 3617.44 671.151 3612.94 656.035 3619.63 640.461 3628.48 628.329 3638.56 615.699 3652.9 604.262 3669.91 604.779 3683.21 605.077 3694.88 598.275 3706.82 593.422Z" fill="#404040" fill-rule="evenodd"/><path d="M4268.11 701.152C4275.82 698.671 4284.62 700.199 4290.66 705.716 4295.95 709.07 4298.21 715.381 4302.67 719.35 4315.69 718.238 4329.08 710.181 4342.02 715.718 4350.43 721.87 4350.7 733.559 4355.52 742.112 4360.83 751.618 4359.32 762.87 4361.52 773.209 4364.1 785.533 4362.73 798.77 4368.74 810.26 4371.15 815.102 4374.28 821.969 4369.51 826.434 4364.12 832.963 4353.24 827.962 4352.27 820.282 4349.91 805.636 4349.59 790.633 4345.47 776.305 4342.78 767.514 4345 757.492 4340.16 749.336 4336.12 745.168 4330.59 742.846 4326.21 739.095 4314.36 743.283 4306.79 755.111 4303.72 766.839 4301.8 774.102 4294.39 779.083 4294.94 787.121 4294.84 803.334 4291.53 819.865 4295.61 835.84 4296.27 840.107 4298.49 845.346 4294.94 848.938 4292.31 853.721 4286.42 854.495 4281.54 853.76 4275.96 852.232 4273.4 846.398 4272.23 841.258 4267.1 819.567 4268.15 797.083 4265.16 775.114 4264.09 763.287 4264.88 751.38 4264.36 739.532 4263.1 731.832 4256.79 725.601 4257.01 717.484 4256.7 710.281 4262.22 704.426 4268.11 701.152Z" fill="#404040" fill-rule="evenodd"/><path d="M4426.37 704.674C4439.49 703.697 4452.83 695.101 4465.81 701.124 4472.95 704.994 4480.63 709.84 4483.64 717.777 4487.01 727.21 4478.75 737.481 4469.26 738.618 4459.49 740.552 4448.62 735.547 4439.71 741.55 4436.32 743.823 4430.52 747.932 4433.57 752.518 4439.09 755.789 4445.25 758.203 4449.88 762.83 4459.67 771.943 4473.35 776.431 4481.72 787.081 4484.56 798.05 4487.25 810.494 4482.04 821.264 4477.3 832.492 4465.69 838.395 4454.86 842.543 4440.75 846.712 4426.85 840.988 4413.41 837.218 4406.83 834.386 4399.27 831.116 4396.42 824.056 4390.76 814.782 4395.98 803.414 4402.26 795.916 4405.13 795.218 4408.1 795.277 4411.04 795.178 4414.29 801.48 4411.49 808.201 4411.57 814.802 4410.98 817.734 4414.41 818.851 4416.5 819.848 4424.5 822.959 4433.03 824.873 4441.56 825.93 4449.64 824.574 4456.96 819.987 4462.54 814.144 4464.95 808.56 4464.38 799.645 4458.04 796.753 4444.34 790.531 4432.49 780.359 4417.6 776.81 4409.92 775.055 4402.7 770.607 4399.31 763.308 4392.55 754.154 4394.76 742.188 4398.15 732.216 4404 720.31 4411.93 706.968 4426.37 704.674Z" fill="#404040" fill-rule="evenodd"/><path d="M4386.42 708C4389.6 708.516 4392.8 709.053 4396 709.649 4395.54 713.303 4396.94 719.281 4392.07 720.135 4387.88 723.015 4384.93 717.97 4382 715.686 4383.5 713.144 4384.95 710.562 4386.42 708Z" fill="#404040" fill-rule="evenodd"/><path d="M4021.05 712.85C4036.87 711.462 4053.85 710.827 4068.24 718.702 4080.01 724.93 4093.84 729.413 4101.68 740.878 4105.95 748.237 4107.04 759.464 4099.23 764.958 4090.39 770.691 4080.05 774.083 4069.55 775.074 4058.98 775.967 4050.09 782.87 4039.56 783.921 4032.1 784.457 4024.65 783.564 4017.21 784.258 4017.43 788.087 4016.6 792.351 4018.84 795.763 4027.29 807.962 4038.76 819.328 4053.79 822.501 4059.99 822.7 4065.95 820.577 4071.94 819.248 4072.87 815.956 4073.85 812.702 4074.82 809.449 4077.9 809.826 4082.81 807.407 4084.18 811.453 4086.55 816.451 4091.2 823.949 4084.56 827.738 4073.03 834.919 4059.97 842.813 4045.78 840.631 4032.94 839.58 4022.36 831.507 4012.62 823.81 4004.29 817.662 3995.82 810.521 3992.23 800.484 3987.22 787.392 3979.58 773.964 3982.74 759.444 3984.85 748.772 3987.12 736.494 3996.46 729.651 4004.11 723.383 4010.31 713.822 4021.05 712.85M4023.08 746.571C4034.92 748.177 4047.75 751.172 4059.04 745.618 4048.6 737.625 4032.86 737.327 4023.08 746.571Z" fill="#404040" fill-rule="evenodd"/><path d="M4157.97 712.851C4173.79 711.462 4190.78 710.827 4205.19 718.684 4216.94 724.915 4230.78 729.399 4238.63 740.847 4242.6 747.871 4244.09 758.268 4237.28 764.101 4228.39 770.648 4217.38 773.982 4206.47 775.093 4195.89 776.005 4187.01 782.91 4176.47 783.942 4169.04 784.478 4161.58 783.565 4154.17 784.319 4154.41 788.049 4153.59 792.235 4155.74 795.609 4164.17 807.87 4175.66 819.299 4190.7 822.533 4196.91 822.731 4202.87 820.608 4208.89 819.299 4209.77 816.045 4210.8 812.811 4211.73 809.577 4214.76 809.418 4217.8 809.319 4220.84 809.239 4221.91 814.279 4225.67 819.12 4224.79 824.358 4219.82 830.648 4211.79 833.227 4204.94 836.878 4194.12 842.553 4180.96 842.057 4169.95 837.295 4160.71 833.148 4153.06 826.382 4145.05 820.35 4138.37 815.053 4132.13 808.644 4129.21 800.509 4124.26 787.493 4116.64 774.14 4119.7 759.736 4121.87 749.021 4123.96 736.561 4133.44 729.716 4141.05 723.426 4147.23 713.843 4157.97 712.851M4160.03 746.581C4172.12 748.684 4184.64 750.133 4196.61 746.422 4186.45 737.454 4169.99 737.216 4160.03 746.581Z" fill="#404040" fill-rule="evenodd"/><path d="M3804.85 721.051C3816.07 718.823 3826.85 711.901 3838.65 714.626 3848.55 715.799 3856.82 721.966 3864.08 728.371 3869.89 733.921 3868.49 743.29 3864.74 749.636 3862.08 753.972 3860.19 760.119 3854.58 761.293 3842.68 765.052 3831.37 757.095 3819.53 757.394 3807.47 760.537 3801.2 772.412 3797.07 783.174 3792.33 791.011 3792.03 800.4 3792.94 809.272 3793.52 814.464 3797.84 818.402 3802.61 819.974 3813.2 824.489 3825.87 825.703 3836.41 820.352 3839.48 818.681 3843.01 819.298 3846.35 819.457 3847.87 823.535 3850.69 829.144 3846.29 832.506 3835.3 841.04 3821.05 844.859 3807.29 844.958 3795.05 845.595 3784.16 838.812 3774.4 832.287 3770.17 825.464 3767.49 817.746 3766.44 809.789 3762.93 792.722 3760.89 774.64 3765.61 757.593 3763.55 759.064 3761.5 760.557 3759.44 762.009 3756.5 759.94 3752.08 758.03 3752 753.853 3753.09 751.625 3754.56 749.636 3755.93 747.587 3759.02 747.567 3762.14 747.547 3765.25 747.527 3765.57 750.69 3765.99 753.873 3766.5 757.056 3769.24 750.67 3767.33 743.111 3770.94 737.064 3779.12 726.74 3792.67 723.756 3804.85 721.051Z" fill="#404040" fill-rule="evenodd"/><path d="M3901.91 718.407C3908.46 715.244 3916 717.889 3921.7 721.648 3924.59 727.575 3926.36 733.979 3927 740.562 3939.34 731.791 3954.08 723.458 3969.73 725.646 3976.41 726.163 3977.6 733.124 3978 738.513 3970.41 742.471 3960.38 738.056 3954.08 744.798 3948.12 750.068 3940.33 753.588 3936.17 760.629 3933.84 766.734 3933.58 773.437 3931.16 779.542 3927.1 789.944 3929.91 801.26 3927.72 812 3926.26 819.099 3926 826.379 3925.17 833.578 3923.37 843.999 3911.33 850.224 3901.57 847.261 3896.84 844.278 3894.87 838.63 3893.6 833.479 3892.28 815.917 3892.96 798.277 3894.35 780.735 3894.35 770.951 3895.35 760.171 3889.59 751.62 3885.23 745.017 3883.53 736.425 3886.46 728.927 3889.07 722.663 3896.19 720.753 3901.91 718.407Z" fill="#404040" fill-rule="evenodd"/><path d="M4341 827.188C4343.42 825.138 4345.87 823.069 4348.31 821 4350.15 823.166 4352.03 825.331 4354 827.439 4352.71 831.887 4348.92 834.111 4344.56 835 4343.35 832.39 4342.15 829.799 4341 827.188Z" fill="#404040" fill-rule="evenodd"/></g></svg>